Coordinates
version=1
nRows=16
nColumns=22
inDegrees=yes

Units are S.I. units (second, meters, Newtons, ...)
If the header above contains a line with 'inDegrees', this indicates whether rotational values are in degrees (yes) or radians (no).

endheader
time	pelvis_tilt	pelvis_list	pelvis_rotation	pelvis_tx	pelvis_ty	pelvis_tz	hip_flexion_r	hip_adduction_r	hip_rotation_r	knee_angle_r	ankle_angle_r	subtalar_angle_r	hip_flexion_l	hip_adduction_l	hip_rotation_l	knee_angle_l	ankle_angle_l	subtalar_angle_l	lumbar_extension	lumbar_bending	lumbar_rotation
      5.68000000	    -10.52661552	    -10.93755130	    271.71827882	     -0.80382567	      0.94339394	      0.11794608	      1.90460166	     11.57110339	     -5.84128096	    -21.66205349	      7.90878427	     -2.27002658	      3.66838632	    -11.93063491	      5.57699403	    -66.19358771	     12.56116859	    -21.16182274	    -11.58184173	      7.96753729	    -12.97960372
      5.69000000	    -10.36553788	    -11.10328783	    271.89479351	     -0.80540350	      0.94406427	      0.12172429	      1.36876508	     11.57758514	     -5.89827944	    -21.47296198	      8.14007134	     -2.51138888	      4.17581279	    -11.85702303	      5.07407702	    -65.73955955	     14.94116825	    -22.38127479	    -11.83201524	      7.87474317	    -12.68998778
      5.70000000	    -10.20592862	    -11.26040667	    272.08986042	     -0.80686488	      0.94474281	      0.12541495	      0.83011778	     11.57479008	     -5.99414523	    -21.24732696	      8.34152857	     -2.72035771	      4.62020148	    -11.77255850	      4.61744008	    -65.04733578	     17.07441751	    -23.24494655	    -12.06439713	      7.78661475	    -12.41151701
      5.71000000	    -10.07927215	    -11.40936800	    272.30347040	     -0.80822098	      0.94539557	      0.12904166	      0.29377976	     11.59793084	     -6.14012710	    -20.99556742	      8.56480881	     -2.85678669	      5.00755574	    -11.72935241	      4.19316411	    -64.13508256	     18.91675158	    -23.56846724	    -12.27366400	      7.74082501	    -12.14123673
      5.72000000	     -9.88979808	    -11.55421523	    272.54705299	     -0.80942363	      0.94608782	      0.13255708	     -0.25263302	     11.55297521	     -6.25138522	    -20.70840291	      8.68194249	     -3.03739858	      5.31344229	    -11.57828605	      3.83990527	    -62.98657079	     20.49449506	    -23.77716338	    -12.47547296	      7.62703401	    -11.88489006
      5.73000000	     -9.73022801	    -11.65379256	    272.80603298	     -0.81053008	      0.94666202	      0.13600022	     -0.72248012	     11.52359766	     -6.44300602	    -20.45958315	      8.82444235	     -3.13990793	      5.60865281	    -11.46943407	      3.50150389	    -61.66082056	     21.81589838	    -23.55649771	    -12.61054041	      7.55374246	    -11.65911348
      5.74000000	     -9.53234275	    -11.79209134	    273.07710535	     -0.81151883	      0.94733181	      0.13937498	     -1.26306861	     11.46175882	     -6.56909525	    -20.15638144	      8.92470826	     -3.28839982	      5.75893520	    -11.29673753	      3.21425272	    -60.11708891	     22.88274603	    -23.00979550	    -12.78403807	      7.44020178	    -11.43886406
      5.75000000	     -9.33427525	    -11.90032334	    273.36122101	     -0.81240574	      0.94792913	      0.14266687	     -1.75426540	     11.39151313	     -6.72381990	    -19.87563149	      9.02249387	     -3.41142660	      5.87190812	    -11.11886261	      2.95929133	    -58.42333748	     23.73869437	    -22.08858436	    -12.91452842	      7.33252533	    -11.24635612
      5.76000000	     -9.14204783	    -11.97162709	    273.64699243	     -0.81320927	      0.94844306	      0.14587409	     -2.18625010	     11.31838391	     -6.89857627	    -19.61985017	      9.09389574	     -3.51691673	      5.95796310	    -10.94342004	      2.72756060	    -56.60988255	     24.42548287	    -20.84234899	    -12.99600100	      7.23349008	    -11.05902107
      5.77000000	     -8.92472638	    -12.04119243	    273.94541751	     -0.81389494	      0.94895312	      0.14900689	     -2.61510559	     11.21530872	     -7.07361696	    -19.36395932	      9.18737808	     -3.59401143	      5.96712596	    -10.72314490	      2.54327249	    -54.68127185	     24.98495407	    -19.50606929	    -13.06881896	      7.11211380	    -10.90562501
      5.78000000	     -8.66917299	    -12.12067209	    274.25390986	     -0.81446868	      0.94948268	      0.15206913	     -3.05230269	     11.06759804	     -7.26035307	    -19.11482776	      9.33217553	     -3.64961855	      5.88488643	    -10.44762066	      2.39385760	    -52.65948916	     25.42302331	    -18.19401118	    -13.14945390	      6.95314292	    -10.80830406
      5.79000000	     -8.46231912	    -12.14544494	    274.51532190	     -0.81506985	      0.94988115	      0.15503074	     -3.39951364	     10.96108057	     -7.43372974	    -18.90287971	      9.39250514	     -3.71545236	      5.81400848	    -10.23590642	      2.21730611	    -50.63043923	     25.78589337	    -16.65641021	    -13.17101117	      6.83707511	    -10.64823573
      5.80000000	     -8.22895605	    -12.18715129	    274.76894109	     -0.81559884	      0.95029498	      0.15790690	     -3.75719603	     10.82208087	     -7.60475354	    -18.70554419	      9.50784542	     -3.75551054	      5.65959964	     -9.98921537	      2.04608644	    -48.58249136	     26.07034813	    -15.33068132	    -13.21322132	      6.69439334	    -10.53904767
      5.81000000	     -8.00263849	    -12.22862797	    274.99542925	     -0.81609435	      0.95067867	      0.16066867	     -4.09875295	     10.68402871	     -7.76147617	    -18.52575955	      9.63139000	     -3.77665957	      5.46045708	     -9.74393538	      1.88027308	    -46.57088011	     26.28409282	    -14.16146661	    -13.26219133	      6.55820357	    -10.41593855
      5.82000000	     -7.79230588	    -12.26253358	    275.18682124	     -0.81658173	      0.95100396	      0.16331644	     -4.40863283	     10.55350750	     -7.90858068	    -18.37695550	      9.77042187	     -3.77637461	      5.24100138	     -9.52466617	      1.67573149	    -44.64283535	     26.43185933	    -13.15466298	    -13.30825160	      6.43884296	    -10.31396622
      5.83000000	     -7.59040036	    -12.30680487	    275.35192382	     -0.81702686	      0.95130968	      0.16583681	     -4.72089307	     10.42696638	     -8.03012899	    -18.23074917	      9.92813054	     -3.76066651	      4.98658709	     -9.30480980	      1.48507759	    -42.82314356	     26.51138238	    -12.46186503	    -13.37500430	      6.33161178	    -10.21562854
